<?xml version="1.0" standalone="no"?>
<!DOCTYPE svg PUBLIC "-//W3C//DTD SVG 20010904//EN"
 "http://www.w3.org/TR/2001/REC-SVG-20010904/DTD/svg10.dtd">
<svg version="1.0" xmlns="http://www.w3.org/2000/svg"
 width="700.000000pt" height="700.000000pt" viewBox="0 0 700.000000 700.000000"
 preserveAspectRatio="xMidYMid meet">
<metadata>
Created by potrace 1.14, written by Peter Selinger 2001-2017
</metadata>
<g transform="translate(0.000000,700.000000) scale(0.100000,-0.100000)"
fill="#000000" stroke="none">
<path d="M2485 5419 c-49 -4 -101 -11 -115 -14 -14 -3 -46 -10 -71 -15 -435
-86 -990 -412 -1301 -764 -107 -121 -159 -196 -270 -393 -130 -230 -208 -422
-264 -647 -57 -232 -55 -299 11 -319 37 -11 424 -16 431 -6 2 5 27 90 54 191
89 326 128 426 213 553 147 218 404 469 637 621 66 44 223 118 320 152 92 32
292 84 375 98 67 11 93 25 106 55 12 31 21 488 9 490 -3 0 -14 2 -25 3 -11 2
-60 -1 -110 -5z"/>
<path d="M2884 5419 c-3 -5 -2 -93 1 -197 4 -103 8 -220 9 -260 2 -40 5 -74 7
-77 3 -2 18 -6 34 -9 241 -43 385 -87 565 -173 70 -34 269 -149 280 -163 3 -3
36 -28 74 -54 195 -138 387 -381 535 -676 89 -177 134 -317 156 -480 3 -25 8
-54 10 -65 2 -11 4 -26 4 -32 1 -10 63 -13 277 -13 l277 0 -6 123 c-5 114 -10
157 -23 199 -3 10 -7 29 -10 42 -8 47 -81 252 -127 357 -88 203 -195 390 -319
558 -79 107 -263 295 -378 386 -41 33 -77 62 -80 65 -7 7 -52 38 -140 97 -239
160 -560 301 -790 348 -133 27 -345 41 -356 24z"/>
<path d="M4853 5136 c-54 -18 -121 -73 -143 -115 -35 -70 -21 -177 32 -242 45
-55 151 -67 223 -25 73 43 106 105 106 194 0 77 -50 142 -141 180 -37 15 -51
17 -77 8z"/>
<path d="M2515 4570 c-112 -14 -147 -21 -237 -51 -347 -113 -664 -391 -857
-751 -68 -126 -133 -305 -156 -428 -3 -14 -7 -36 -11 -50 -12 -54 -11 -317 2
-405 57 -376 270 -731 577 -964 110 -83 147 -105 293 -176 171 -83 272 -109
464 -124 132 -10 394 -2 419 13 3 2 28 7 55 10 27 4 84 16 125 28 464 126 818
467 986 948 51 146 64 206 83 370 11 94 5 269 -13 360 -29 149 -48 214 -102
339 -159 372 -476 669 -863 809 -100 36 -147 49 -215 58 -27 3 -59 8 -70 11
-35 8 -418 11 -480 3z"/>
<path d="M898 2974 c-4 -3 -405 -17 -447 -15 l-34 2 6 -113 c7 -123 9 -136 38
-251 62 -246 193 -532 351 -769 180 -271 494 -562 781 -725 207 -118 485 -227
652 -257 201 -36 302 -55 310 -56 28 -6 47 3 56 27 13 32 19 492 7 499 -8 5
-38 10 -123 19 -27 3 -72 10 -100 15 -27 6 -59 12 -71 14 -60 12 -222 74 -324
123 -569 280 -914 713 -1030 1293 -36 180 -40 197 -56 197 -8 0 -15 -1 -16 -3z"/>
<path d="M4561 2975 c4 -3 2 -25 -3 -48 -13 -58 -16 -69 -22 -113 -21 -134
-84 -320 -157 -465 -34 -70 -121 -215 -151 -254 -176 -229 -323 -370 -513
-491 -88 -56 -261 -135 -420 -192 -166 -59 -209 -71 -295 -80 -93 -10 -93 -8
-95 -315 l-1 -249 65 6 c163 16 451 84 566 135 11 5 52 21 90 37 159 64 399
195 515 280 184 137 274 222 439 419 9 11 49 65 88 120 171 240 314 524 387
765 38 128 48 179 61 305 3 33 8 72 11 88 2 15 1 28 -3 28 -64 11 -570 32
-562 24z"/>
<path d="M1143 246 c-45 -39 -59 -78 -44 -118 11 -30 66 -58 113 -58 36 0 95
31 104 55 20 51 -39 142 -97 151 -29 5 -41 0 -76 -30z"/>
</g>
</svg>
