<?xml version="1.0" standalone="no"?>
<!DOCTYPE svg PUBLIC "-//W3C//DTD SVG 20010904//EN"
 "http://www.w3.org/TR/2001/REC-SVG-20010904/DTD/svg10.dtd">
<svg version="1.0" xmlns="http://www.w3.org/2000/svg"
 width="700.000000pt" height="700.000000pt" viewBox="0 0 700.000000 700.000000"
 preserveAspectRatio="xMidYMid meet">
<metadata>
Created by potrace 1.14, written by Peter Selinger 2001-2017
</metadata>
<g transform="translate(0.000000,700.000000) scale(0.100000,-0.100000)"
fill="#000000" stroke="none">
<path d="M3045 6988 c-620 -78 -1324 -419 -1895 -917 -36 -32 -177 -171 -231
-228 -242 -255 -530 -745 -699 -1188 -48 -125 -80 -234 -120 -399 -85 -354
-80 -426 33 -457 56 -15 614 -20 626 -5 7 9 132 453 146 520 17 75 102 317
138 391 146 299 501 700 862 976 220 168 480 304 735 384 78 24 321 88 380 99
101 19 215 49 235 62 44 29 49 74 49 459 l1 310 -100 0 c-56 0 -128 -3 -160
-7z"/>
<path d="M3685 6864 c3 -77 7 -197 10 -269 12 -309 17 -390 23 -396 6 -5 190
-43 275 -56 16 -2 85 -20 153 -39 268 -73 567 -213 829 -387 265 -177 421
-321 618 -572 126 -161 306 -474 405 -705 50 -116 107 -281 117 -341 3 -18 7
-35 9 -38 2 -3 7 -28 10 -56 4 -27 9 -57 11 -65 2 -8 6 -37 9 -65 10 -91 16
-129 22 -134 3 -3 188 -6 410 -7 l404 0 -4 155 c-3 86 -9 181 -15 211 -6 30
-13 65 -15 77 -13 67 -71 265 -102 350 -19 54 -37 103 -38 108 -2 6 -8 21 -13
35 -6 14 -21 50 -33 80 -37 94 -179 379 -248 500 -84 146 -213 338 -311 460
-78 98 -280 306 -386 398 -33 29 -67 58 -75 66 -104 92 -411 305 -579 400
-189 108 -577 286 -622 286 -6 0 -25 6 -42 14 -66 29 -260 78 -401 102 -50 8
-166 18 -259 21 l-167 5 5 -138z"/>
<path d="M6562 6550 c-141 -71 -196 -150 -197 -285 0 -71 4 -88 33 -147 19
-39 49 -80 70 -98 92 -76 237 -72 341 10 140 111 167 321 55 434 -42 42 -131
97 -181 112 -41 13 -45 12 -121 -26z"/>
<path d="M3258 5745 c-2 -2 -39 -6 -83 -9 -44 -3 -90 -8 -101 -10 -12 -3 -38
-7 -58 -10 -280 -45 -618 -207 -893 -430 -91 -74 -308 -301 -381 -398 -275
-366 -443 -779 -478 -1173 -11 -134 -5 -439 10 -464 2 -3 7 -28 10 -56 9 -66
48 -222 81 -319 155 -461 463 -865 875 -1145 264 -179 581 -314 815 -347 28
-3 59 -8 70 -10 11 -2 72 -7 135 -11 257 -15 534 -2 695 34 11 2 34 6 50 9 61
11 277 73 335 97 14 5 31 11 37 13 7 1 73 32 145 67 353 174 630 424 843 762
60 94 182 338 209 415 8 25 24 69 35 98 11 29 20 54 20 55 0 1 2 9 5 17 93
282 123 642 80 950 -19 135 -85 380 -131 490 -84 200 -215 421 -340 574 -350
429 -898 736 -1393 782 -36 3 -76 8 -90 11 -27 5 -497 13 -502 8z"/>
<path d="M6175 3333 c-5 -26 -9 -52 -11 -58 -1 -5 -7 -37 -13 -70 -6 -33 -13
-71 -16 -85 -9 -41 -25 -123 -31 -154 -11 -62 -88 -286 -137 -396 -203 -457
-559 -897 -942 -1162 -110 -77 -147 -98 -320 -183 -311 -152 -665 -274 -840
-290 -144 -13 -137 9 -143 -463 l-4 -373 53 6 c30 3 65 8 79 9 14 2 52 7 85
11 51 6 201 33 270 49 191 42 482 141 675 228 662 300 1114 674 1497 1241 164
242 318 521 403 727 12 30 31 74 41 98 36 79 107 307 133 422 31 141 34 163
42 323 l7 127 -29 1 c-16 1 -49 2 -74 4 -25 1 -110 5 -190 9 -80 4 -172 9
-205 11 -33 2 -119 7 -191 10 l-132 6 -7 -48z"/>
<path d="M627 3363 c-1 -1 -110 -5 -242 -9 -132 -3 -262 -7 -290 -8 l-50 -2 1
-149 c0 -102 6 -176 18 -230 10 -44 19 -88 21 -97 26 -123 110 -374 175 -523
52 -122 72 -165 118 -258 247 -500 599 -919 1062 -1265 230 -172 522 -338 785
-445 217 -89 380 -136 638 -183 355 -65 395 -70 408 -57 6 6 15 30 21 54 11
47 20 717 9 723 -7 5 -54 12 -136 21 -174 20 -204 26 -322 56 -381 97 -830
342 -1157 629 -361 317 -632 736 -766 1186 -24 82 -53 206 -84 369 -3 11 -12
60 -22 108 l-17 88 -84 -3 c-47 -2 -85 -4 -86 -5z"/>
<path d="M1362 409 c-116 -58 -152 -190 -69 -253 113 -85 308 -19 290 98 -11
68 -68 144 -126 165 -39 15 -46 14 -95 -10z"/>
</g>
</svg>
