<svg width="179" height="178" viewBox="0 0 179 178" fill="none" xmlns="http://www.w3.org/2000/svg">
  <path d="M68.0197 2.13331C50.5531 6.79998 31.4864 18.9333 20.2864 32.4C12.8197 41.6 4.81974 57.2 2.15307 68.1333C-1.44693 82.8 -1.44693 82.6666 9.35307 82.6666H18.5531L20.6864 74.9333C21.7531 70.8 23.3531 65.2 24.2864 62.6666C27.6197 51.8666 43.8864 34.8 56.9531 28.1333C64.2864 24.5333 68.1531 23.3333 80.4197 20.6666C84.0197 20 84.0197 19.7333 84.0197 9.99998V-2.46565e-05L79.7531 0.133309C77.3531 0.133309 72.0197 1.06664 68.0197 2.13331Z" fill="#1E1E1E"/>
  <path d="M94.0198 10.2667L94.4198 20.6667L102.686 22.2667C114.153 24.6667 128.553 32.5333 137.486 41.4667C146.286 50.2667 155.486 67.3333 156.82 77.4667L157.753 84H168.153H178.686V79.6C178.686 68 169.62 46.9333 159.086 33.6C144.153 14.9333 116.82 -4.38094e-06 97.3531 -4.38094e-06H93.6198L94.0198 10.2667Z" fill="#1E1E1E"/>
  <path d="M165.62 12.8C160.02 16.6667 162.686 26.6667 169.22 26.6667C176.686 26.6667 180.286 16.9333 174.42 12.8C172.82 11.6 170.82 10.6667 170.02 10.6667C169.22 10.6667 167.22 11.6 165.62 12.8Z" fill="#1E1E1E"/>
  <path d="M74.2864 33.4666C53.6198 38.4 35.6198 58.6666 31.8864 81.2C28.1531 105.067 41.7531 129.467 64.9531 140.267C72.0198 143.6 76.1531 144.667 84.6864 145.067C113.62 146.533 135.62 131.467 144.02 104.133C153.22 74.5333 135.886 43.0666 105.486 34.1333C97.7531 31.8666 82.5531 31.4666 74.2864 33.4666Z" fill="#1E1E1E"/>
  <path d="M0.0197449 98C0.0197449 107.333 6.68641 124.933 14.8197 136.933C27.4864 155.867 49.7531 170.8 70.6864 174.667C75.4864 175.467 80.4197 176.4 81.7531 176.667C83.7531 177.067 84.0197 175.867 84.0197 166.667V156.4L77.4864 155.6C68.6864 154.533 58.5531 150.133 48.2864 143.067C33.8864 132.933 24.1531 118 21.0864 101.333L19.4864 93.3333L9.75308 93.7333L0.0197449 94V98Z" fill="#1E1E1E"/>
  <path d="M156.42 101.467C153.22 118.533 139.886 137.2 124.82 146C116.953 150.667 102.42 156 98.0197 156C94.8197 156 94.6864 156.267 94.6864 166.8V177.467L101.086 176.667C117.886 174.267 137.486 164.933 149.886 153.333C164.553 139.733 177.486 115.6 178.82 99.4667L179.353 94.1333L168.686 93.6L158.02 93.0667L156.42 101.467Z" fill="#1E1E1E"/>
  <path d="M32.096 171C29.696 173.8 31.4294 177 35.4294 177C37.296 177 39.1627 176.067 39.5627 175C40.496 172.733 37.9627 169 35.4294 169C34.496 169 33.0294 169.933 32.096 171Z" fill="#1E1E1E"/>
  </svg>