<?xml version="1.0" standalone="no"?>
<!DOCTYPE svg PUBLIC "-//W3C//DTD SVG 20010904//EN"
 "http://www.w3.org/TR/2001/REC-SVG-20010904/DTD/svg10.dtd">
<svg version="1.0" xmlns="http://www.w3.org/2000/svg"
 width="200pt" height="200pt" viewBox="0 0 200 200"
 preserveAspectRatio="xMidYMid meet">
<g transform="translate(-70,270) scale(0.1,-0.1)"
fill="#fff" stroke="none">
<path d="M1330 2234 c-131 -35 -274 -126 -358 -227 -56 -69 -116 -186 -136
-268 -27 -110 -27 -109 54 -109 l69 0 16 58 c8 31 20 73 27 92 25 81 147 209
245 259 55 27 84 36 176 56 27 5 27 7 27 80 l0 75 -32 -1 c-18 0 -58 -7 -88
-15z"/>
<path d="M1525 2173 l3 -78 62 -12 c86 -18 194 -77 261 -144 66 -66 135 -194
145 -270 l7 -49 78 0 79 0 0 33 c0 87 -68 245 -147 345 -112 140 -317 252
-463 252 l-28 0 3 -77z"/>
<path d="M2062 2154 c-42 -29 -22 -104 27 -104 56 0 83 73 39 104 -12 9 -27
16 -33 16 -6 0 -21 -7 -33 -16z"/>
<path d="M1377 1999 c-155 -37 -290 -189 -318 -358 -28 -179 74 -362 248 -443
53 -25 84 -33 148 -36 217 -11 382 102 445 307 69 222 -61 458 -289 525 -58
17 -172 20 -234 5z"/>
<path d="M820 1515 c0 -70 50 -202 111 -292 95 -142 262 -254 419 -283 36 -6
73 -13 83 -15 15 -3 17 6 17 75 l0 77 -49 6 c-66 8 -142 41 -219 94 -108 76
-181 188 -204 313 l-12 60 -73 -3 -73 -2 0 -30z"/>
<path d="M1993 1489 c-24 -128 -124 -268 -237 -334 -59 -35 -168 -75 -201 -75
-24 0 -25 -2 -25 -81 l0 -80 48 6 c126 18 273 88 366 175 110 102 207 283 217
404 l4 40 -80 4 -80 4 -12 -63z"/>
<path d="M1020 765 c-18 -21 -5 -45 25 -45 14 0 28 7 31 15 7 17 -12 45 -31
45 -7 0 -18 -7 -25 -15z"/>
</g>
</svg>
