<svg width="180" height="180" viewBox="0 0 180 180" fill="none" xmlns="http://www.w3.org/2000/svg">
  <g clip-path="url(#clip0_1_2)">
  <path d="M69.0197 2.13331C51.5531 6.79998 32.4864 18.9333 21.2864 32.4C13.8197 41.6 5.81974 57.2 3.15307 68.1333C-0.446926 82.8 -0.446926 82.6666 10.3531 82.6666H19.5531L21.6864 74.9333C22.7531 70.8 24.3531 65.2 25.2864 62.6666C28.6197 51.8666 44.8864 34.8 57.9531 28.1333C65.2864 24.5333 69.1531 23.3333 81.4197 20.6666C85.0197 20 85.0197 19.7333 85.0197 9.99998V-2.46565e-05L80.7531 0.133309C78.3531 0.133309 73.0197 1.06664 69.0197 2.13331Z" fill="white"/>
  <path d="M95.0198 10.2667L95.4198 20.6667L103.686 22.2667C115.153 24.6667 129.553 32.5333 138.486 41.4667C147.286 50.2667 156.486 67.3333 157.82 77.4667L158.753 84H169.153H179.686V79.6C179.686 68 170.62 46.9333 160.086 33.6C145.153 14.9333 117.82 -4.38094e-06 98.3531 -4.38094e-06H94.6198L95.0198 10.2667Z" fill="white"/>
  <path d="M166.62 12.8C161.02 16.6667 163.686 26.6667 170.22 26.6667C177.686 26.6667 181.286 16.9333 175.42 12.8C173.82 11.6 171.82 10.6667 171.02 10.6667C170.22 10.6667 168.22 11.6 166.62 12.8Z" fill="white"/>
  <path d="M75.2864 33.4666C54.6198 38.4 36.6198 58.6666 32.8864 81.2C29.1531 105.067 42.7531 129.467 65.9531 140.267C73.0198 143.6 77.1531 144.667 85.6864 145.067C114.62 146.533 136.62 131.467 145.02 104.133C154.22 74.5333 136.886 43.0666 106.486 34.1333C98.7531 31.8666 83.5531 31.4666 75.2864 33.4666Z" fill="white"/>
  <path d="M1.01974 98C1.01974 107.333 7.68641 124.933 15.8197 136.933C28.4864 155.867 50.7531 170.8 71.6864 174.667C76.4864 175.467 81.4197 176.4 82.7531 176.667C84.7531 177.067 85.0197 175.867 85.0197 166.667V156.4L78.4864 155.6C69.6864 154.533 59.5531 150.133 49.2864 143.067C34.8864 132.933 25.1531 118 22.0864 101.333L20.4864 93.3333L10.7531 93.7333L1.01974 94V98Z" fill="white"/>
  <path d="M157.42 101.467C154.22 118.533 140.886 137.2 125.82 146C117.953 150.667 103.42 156 99.0197 156C95.8197 156 95.6864 156.267 95.6864 166.8V177.467L102.086 176.667C118.886 174.267 138.486 164.933 150.886 153.333C165.553 139.733 178.486 115.6 179.82 99.4667L180.353 94.1333L169.686 93.6L159.02 93.0667L157.42 101.467Z" fill="white"/>
  <path d="M33.096 171C30.696 173.8 32.4294 177 36.4294 177C38.296 177 40.1627 176.067 40.5627 175C41.496 172.733 38.9627 169 36.4294 169C35.496 169 34.0294 169.933 33.096 171Z" fill="white"/>
  </g>
  <defs>
  <clipPath id="clip0_1_2">
  <rect width="180" height="180" fill="white"/>
  </clipPath>
  </defs>
  </svg>  